<?xml version="1.0" standalone="no"?><!DOCTYPE svg PUBLIC "-//W3C//DTD SVG 1.1//EN" "http://www.w3.org/Graphics/SVG/1.1/DTD/svg11.dtd"><svg t="1682063120365" class="icon" viewBox="0 0 1024 1024" version="1.1" xmlns="http://www.w3.org/2000/svg" p-id="1135" width="200" height="200" xmlns:xlink="http://www.w3.org/1999/xlink"><path d="M512 0C230.4 0 0 230.4 0 512s230.4 512 512 512 512-230.4 512-512S793.6 0 512 0z m-182.4 768C288 768 256 736 256 694.4s32-73.6 73.6-73.6 73.6 32 73.6 73.6-32 73.6-73.6 73.6z m185.6 0c0-144-115.2-259.2-259.2-259.2v-80c185.6 0 339.2 150.4 339.2 339.2h-80z m172.8 0c0-240-195.2-432-432-432V256c281.6 0 512 230.4 512 512h-80z" fill="#2c2c2c" p-id="1136"></path></svg>